<mxfile host="app.diagrams.net" modified="2024-02-24T06:07:27.477Z" agent="Mozilla/5.0 (Windows NT 10.0; Win64; x64) AppleWebKit/537.36 (KHTML, like Gecko) Chrome/121.0.0.0 Safari/537.36 Edg/121.0.0.0" version="23.1.6" etag="wcKCV2fRfm_ebdSOsqDJ" type="github">
  <diagram name="Page-1" id="5XQdWCVG-jqhVARtf5_9">
    <mxGraphModel>
      <root>
        <mxCell id="0" />
        <mxCell id="1" parent="0" />
      </root>
    </mxGraphModel>
  </diagram>
</mxfile>
